<?xml version="1.0" encoding="utf-8"?>
<!-- Generator: Adobe Illustrator 27.5.0, SVG Export Plug-In . SVG Version: 6.00 Build 0)  -->
<svg version="1.1" xmlns="http://www.w3.org/2000/svg" xmlns:xlink="http://www.w3.org/1999/xlink" x="0px" y="0px"
	 viewBox="0 0 500 500" style="enable-background:new 0 0 500 500;" xml:space="preserve">
<g id="BACKGROUND">
	<g>
		<defs>
			<rect id="SVGID_1_" width="500" height="500"/>
		</defs>
		<use xlink:href="#SVGID_1_"  style="overflow:visible;fill:#EBEBEB;"/>
		<clipPath id="SVGID_00000017500913435120053460000000138308311664154015_">
			<use xlink:href="#SVGID_1_"  style="overflow:visible;"/>
		</clipPath>
	</g>
	<rect style="fill: #EFEFEF;" width="500" height="500"/>
</g>
<g id="OBJECTS">
	<g>
		<g>
			
				<text transform="matrix(1 0 0 1 87.5366 265.7876)" style="fill:red; font-family:'Roboto-Bold'; font-size:113.466px; letter-spacing:6;">40</text>
			<g>
				<rect x="95.815" y="266.852" style="fill:#FF0400;" width="208.158" height="0.784"/>
			</g>

				<text transform="matrix(0.9641 -0.2656 0.2656 0.9641 221.6364 256.4757)" style="fill: red; font-family:'Roboto-Bold'; font-size:113.4657px; letter-spacing:6;">4</text>
		</g>
		<text transform="matrix(1 0 0 1 92.7788 288.9921)"><tspan x="0" y="0" style="fill:#FF0400; font-family:'OpenSans-Semibold'; font-size:13.4632px; letter-spacing:1;">THE PAGE YOU’RE LOOKING</tspan><tspan x="0" y="16.156" style="fill:#FF0400; font-family:'OpenSans-Semibold'; font-size:13.4632px; letter-spacing:1;">FOR DOESN’T EXIST.</tspan></text>
	</g>
	<g>
		<path style="fill:#2B2B2B;" d="M429.463,306.85c0,5.42-24.299,9.813-54.275,9.813c-29.975,0-54.274-4.394-54.274-9.813
			c0-5.42,24.3-9.814,54.274-9.814C405.164,297.036,429.463,301.43,429.463,306.85z"/>
		<g>
			<g>
				<path style="fill:#FFFFFF;" d="M250.801,260.508c2.489,1.029,4.979,2.061,7.469,3.09c0.698,0.289,1.002-0.848,0.312-1.135
					c-2.489-1.029-4.979-2.059-7.467-3.089C250.415,259.085,250.11,260.223,250.801,260.508L250.801,260.508z"/>
			</g>
			<g>
				<path style="fill:#FFFFFF;" d="M264.461,249.507c0.914,1.569,1.829,3.137,2.743,4.704c0.382,0.654,1.397,0.063,1.016-0.594
					c-0.914-1.566-1.829-3.135-2.744-4.704C265.095,248.261,264.078,248.852,264.461,249.507L264.461,249.507z"/>
			</g>
			<g>
				<path style="fill:#FFFFFF;" d="M281.522,245.501c-0.365,1.835-0.73,3.669-1.096,5.504c-0.148,0.739,0.985,1.056,1.134,0.313
					c0.365-1.835,0.73-3.669,1.095-5.504C282.803,245.074,281.67,244.758,281.522,245.501L281.522,245.501z"/>
			</g>
			<g>
				<path style="fill:#FFFFFF;" d="M294.855,248.311c-1.307,0.915-2.612,1.83-3.919,2.744c-0.616,0.432-0.029,1.451,0.594,1.016
					c1.307-0.914,2.612-1.829,3.919-2.744C296.065,248.895,295.478,247.876,294.855,248.311L294.855,248.311z"/>
			</g>
			<g>
				<path style="fill:#FFFFFF;" d="M293.741,261.147c2.744-1.045,5.488-2.092,8.232-3.137c0.701-0.267,0.397-1.404-0.313-1.134
					c-2.743,1.046-5.488,2.091-8.232,3.136C292.727,260.279,293.032,261.416,293.741,261.147L293.741,261.147z"/>
			</g>
		</g>
		<g>
			
				<linearGradient id="SVGID_00000071537434102876956810000017729740063158614947_" gradientUnits="userSpaceOnUse" x1="367.9594" y1="275.3099" x2="326.2104" y2="306.7688">
				<stop  offset="0.1112" style="stop-color:#F98886"/>
				<stop  offset="0.2919" style="stop-color:#F99694"/>
			</linearGradient>
			<path style="fill:url(#SVGID_00000071537434102876956810000017729740063158614947_);" d="M352.779,250.191
				c0,0-9.408,27.833-8.625,29.401c0.784,1.567,14.505,10.976,14.505,10.976l-10.978,5.097c0,0-2,5.386-1.567,5.488
				c18.585,4.373,36.065,0,36.065,0s0-4.705-5.88-11.761c-2.368-2.84-22.737-11.368-22.737-11.368l20.385-22.736L352.779,250.191z"
				/>
				<linearGradient id="SVGID_00000054232136333584719650000004351355938320879276_" gradientUnits="userSpaceOnUse" x1="367.5781" y1="211.6035" x2="387.3361" y2="273.2485">
				<stop  offset="0.1112" style="stop-color:#F98886"/>
				<stop  offset="0.2919" style="stop-color:#F99694"/>
			</linearGradient>
			<path style="fill:url(#SVGID_00000054232136333584719650000004351355938320879276_);" d="M344.686,171.099
				c26.436-4.344,83.435,58.952,52.193,93.597c-7.383,8.188-32.733,13.721-44.494-3.725c-10.046-14.903,10.092-65.879-6.091-67.88
				C330.111,191.09,339.246,171.993,344.686,171.099z"/>
			<path style="fill:#F99694;" d="M374.339,259.795c0,0-9.408,27.833-8.624,29.401c0.783,1.567,14.505,10.976,14.505,10.976
				l-10.977,5.096c0,0-2.002,5.387-1.568,5.489c18.584,4.373,36.065,0,36.065,0s0-4.704-5.881-11.761
				c-2.367-2.841-22.736-11.368-22.736-11.368l20.385-22.737L374.339,259.795z"/>
			
				<linearGradient id="SVGID_00000054254012660497155000000015675945169482310825_" gradientUnits="userSpaceOnUse" x1="237.4109" y1="101.6051" x2="149.7368" y2="107.9372" gradientTransform="matrix(0.7519 -0.0856 -0.0642 -0.5642 164.2737 304.0476)">
				<stop  offset="0.1112" style="stop-color:#F98886"/>
				<stop  offset="0.2919" style="stop-color:#F99694"/>
			</linearGradient>
			<path style="fill:url(#SVGID_00000054254012660497155000000015675945169482310825_);" d="M282.02,226.964
				c0,0,38.748,30.36,78.5-2.058l-46.747,6.174c0,0-27.343-21.168-37.633-11.76c-4.76,4.351-8.159,6.395-8.159,6.395l0.809,2.425
				C268.79,228.14,277.486,226.472,282.02,226.964z"/>
			<path style="fill:#1FFFA4;" d="M359.673,221.449c0,0-6.333-10.264-25.116,2.67c0,0,0.696,7.59,9.135,15.421
				C343.691,239.54,362.236,230.913,359.673,221.449z"/>
			<path style="fill:#C5EFDD;" d="M336.579,221.726c0,0,3.603,10.778,10.848,16.561l-5.652,3.343c0,0-7.318-6.353-10.353-17.205
				L336.579,221.726z"/>
			<path style="fill:#20D386;" d="M346.114,254.895c6.967,12.541,36.457,17.837,57.038,6.273c0,0,13.721-28.813-11.858-60.273
				l-9.702-13.524l-31.165,26.461C350.427,213.832,345.135,253.131,346.114,254.895z"/>
			<path style="fill:#C5EFDD;" d="M377.671,180.609c0.784,0.392,12.741,11.564,13.917,14.113c1.176,2.548,0,7.252-1.568,9.408
				c-1.568,2.156-18.032,26.852-41.944,22.933c-23.914-3.92,13.524-39.398,13.524-39.398L377.671,180.609z"/>
			<g>

					<linearGradient id="SVGID_00000083087513086728250560000017333774775193650621_" gradientUnits="userSpaceOnUse" x1="297.6092" y1="184.0935" x2="385.5934" y2="184.0935">
					<stop  offset="0.1112" style="stop-color:#F98886"/>
					<stop  offset="0.2919" style="stop-color:#F99694"/>
				</linearGradient>
				<path style="fill:url(#SVGID_00000083087513086728250560000017333774775193650621_);" d="M382.673,167.567
					c8.686,21.589-2.659,46.49-25.343,55.617c-22.682,9.127-48.112-0.975-56.8-22.564c-8.687-21.589,2.658-46.49,25.341-55.617
					C348.555,135.876,373.985,145.978,382.673,167.567z"/>

					<linearGradient id="SVGID_00000179606224069708453990000014044076156879595685_" gradientUnits="userSpaceOnUse" x1="369.9984" y1="189.7482" x2="355.102" y2="245.6098">
					<stop  offset="0.1112" style="stop-color:#F98886"/>
					<stop  offset="0.2919" style="stop-color:#F99694"/>
				</linearGradient>
				<path style="fill:url(#SVGID_00000179606224069708453990000014044076156879595685_);" d="M357.287,184.137
					c0,12.124,8.152,21.953,18.21,21.953c1.072,0,2.117-0.134,3.14-0.349c7.26-11.194,9.227-25.274,4.036-38.174
					c-0.633-1.571-1.363-3.074-2.166-4.521c-1.593-0.549-3.271-0.862-5.01-0.862C365.439,162.184,357.287,172.013,357.287,184.137z"
					/>
				<path style="fill:#FFAEAE;" d="M313.024,198.895c1.491,3.702,0.851,7.447-1.43,8.364c-2.278,0.917-5.335-1.341-6.824-5.043
					c-1.489-3.702,3.221-2.692,4.495-7.494C309.895,192.347,311.535,195.192,313.024,198.895z"/>
				<path style="fill:#FFAEAE;" d="M344.119,195.646c0,5.134-2.975,9.295-6.645,9.295c-3.671,0-6.645-4.161-6.645-9.295
					c0-5.133,5.497-11.154,6.367-7.589C338.976,195.349,344.119,190.513,344.119,195.646z"/>
				<path style="fill:#383838;" d="M344.239,195.352c0,5.134-2.788,9.295-6.228,9.295c-3.439,0-6.227-4.161-6.227-9.295
					c0-5.133,3.956-9.952,5.803-7.05C340.675,193.153,344.239,190.219,344.239,195.352z"/>
				<path style="fill:#383838;" d="M313.025,198.677c1.464,3.636,0.943,7.27-1.159,8.116c-2.104,0.847-4.996-1.415-6.459-5.05
					c-1.464-3.636,1.604-0.945,4.103-6.825C310.397,192.83,311.563,195.041,313.025,198.677z"/>
				<g>
					<path style="fill:#383838;" d="M321.613,222.946c-0.304,0-0.56-0.232-0.585-0.54c-0.018-0.223-0.387-5.504,4.896-8.254
						c3.95-2.055,14.276-4.257,25.096,2.113c0.279,0.165,0.373,0.525,0.208,0.805c-0.166,0.281-0.526,0.372-0.806,0.208
						c-10.374-6.108-20.205-4.033-23.955-2.083c-4.575,2.381-4.281,6.924-4.267,7.116c0.024,0.324-0.216,0.607-0.54,0.632
						C321.645,222.945,321.629,222.946,321.613,222.946z"/>
				</g>
			</g>
			<path style="fill:#F99694;" d="M336.02,142.388c0,0-23.814-3.234-37.633,3.822c-17.939,9.16,3.822,9.996,2.939,10.29
				c-0.882,0.294-24.402,19.306-14.015,51.059c1.644,5.024,4.878-32.71,15.093-33.615c1.084-0.096-0.497,4.128-0.195,7.057
				c0.413,4.033,2.559,7.003,3.527,5.488c15.289-23.913,34.77-18.289,48.609-25.481c17.192-8.934,29.83,13.284,26.853,3.724
				c-7.448-23.913-39.887-33.223-49.589-31.459C320.596,135.276,336.02,142.388,336.02,142.388z"/>

				<linearGradient id="SVGID_00000168825709956530576140000013356184757208752529_" gradientUnits="userSpaceOnUse" x1="351.1349" y1="149.0393" x2="353.291" y2="226.0697">
				<stop  offset="0.1112" style="stop-color:#F98886"/>
				<stop  offset="0.2919" style="stop-color:#F99694"/>
			</linearGradient>
			<path style="fill:url(#SVGID_00000168825709956530576140000013356184757208752529_);" d="M333.766,147.092
				c0,0,21.953,5.292,28.617,24.108c6.664,18.817,6.468-7.84,6.468-7.84l-8.82-11.172
				C360.03,152.188,335.922,139.644,333.766,147.092z"/>
			<path style="fill:#F99694;" d="M383.747,219.81c0,0,6.272,68.211,13.328,70.954c7.057,2.744,19.21-3.136,19.21-5.88
				c0-2.744-2.745-3.92-2.745-3.92l-7.448,1.96c0,0-4.704-9.801-6.664-12.152c-1.96-2.353-3.136-50.962-3.136-50.962
				S387.275,204.13,383.747,219.81z"/>
			<path style="fill:#1FFFA4;" d="M390.216,209.814c0,0-12.936,1.323-9.212,25.628c0,0,7.692,2.891,19.258-1.617
				C400.262,233.825,400.603,211.774,390.216,209.814z"/>
			<path style="fill:#C5EFDD;" d="M379.631,232.355c0,0,12.152,1.568,21.169-2.744l0.588,7.056c0,0-9.605,4.116-21.56,1.96
				L379.631,232.355z"/>
			
				<linearGradient id="SVGID_00000038406052853120838650000011990172267004732083_" gradientUnits="userSpaceOnUse" x1="332.3416" y1="216.3152" x2="334.3956" y2="224.5312">
				<stop  offset="0.1112" style="stop-color:#F98886"/>
				<stop  offset="0.2919" style="stop-color:#F99694"/>
			</linearGradient>
			<path style="fill:url(#SVGID_00000038406052853120838650000011990172267004732083_);" d="M328.474,217.654
				c0,0,3.97-3.578,8.82-0.491C342.145,220.251,324.505,225.004,328.474,217.654z"/>
			<g>
				<g>
					<path style="fill:#FFFFFF;" d="M366.871,179.139c0-11.24,6.873-20.351,15.35-20.351c0.654,0,1.294,0.072,1.926,0.177
						c-2.203-1.142-4.63-1.779-7.18-1.779c-10.057,0-18.21,9.829-18.21,21.953c0,12.123,8.153,21.952,18.21,21.952
						c2.55,0,4.977-0.637,7.18-1.779c-0.632,0.105-1.271,0.177-1.926,0.177C373.744,199.49,366.871,190.378,366.871,179.139z"/>
					<path style="fill:#20D386;" d="M383.985,197.436c-7.541,0-13.653-8.105-13.653-18.101c0-9.997,6.112-18.102,13.653-18.102
						c1.66,0,3.244,0.413,4.716,1.132c-1.363-1.387-2.894-2.54-4.555-3.4c-0.632-0.105-1.271-0.177-1.926-0.177
						c-8.477,0-15.35,9.111-15.35,20.351c0,11.239,6.873,20.35,15.35,20.35c0.654,0,1.294-0.072,1.926-0.177
						c1.341-0.694,2.587-1.592,3.739-2.635C386.648,197.165,385.342,197.436,383.985,197.436z"/>
					<path style="fill:#C5EFDD;" d="M395.176,179.139c0-6.732-2.519-12.747-6.475-16.774c-1.472-0.719-3.056-1.132-4.716-1.132
						c-7.541,0-13.653,8.105-13.653,18.102c0,9.996,6.112,18.101,13.653,18.101c1.356,0,2.663-0.271,3.9-0.759
						C392.305,192.671,395.176,186.317,395.176,179.139z"/>
				</g>
				<g>
					<path style="fill:#FFFFFF;" d="M366.696,164.694l5.585-5.352c-16.759-23.521-38.222-18.523-38.222-18.523
						s-4.115,1.176-6.468,3.234C327.592,144.054,353.316,140.963,366.696,164.694z"/>
					<path style="fill:#AFDDC8;" d="M327.886,146.7c23.815-3.234,37.339,19.404,37.339,19.404l1.472-1.41
						c-13.38-23.731-39.104-20.641-39.104-20.641C325.24,146.112,327.886,146.7,327.886,146.7z"/>
				</g>
			</g>
			<path style="fill:#F99694;" d="M335.04,146.994c0,0-6.958-3.234-10.191-9.114c-3.234-5.88-5.98-7.056-4.804,1.078
				c1.177,8.135,3.431,10.29,3.431,10.29s-8.526-15.68-10.094-13.034c-1.568,2.646,4.704,17.347,4.704,17.347
				S345.624,153.756,335.04,146.994z"/>
		</g>
		<g>
			<path style="fill:#C5EFDD;" d="M358.018,236.256c-0.148,2.675-1.517,4.775-3.057,4.69c-1.54-0.085-2.669-2.323-2.521-4.998
				c0.146-2.675,1.516-4.775,3.056-4.69C357.035,231.344,358.164,233.581,358.018,236.256z"/>
			<path style="fill:#FFFFFF;" d="M357.137,236.208c-0.148,2.675-1.517,4.775-3.057,4.69c-1.54-0.085-2.669-2.322-2.521-4.997
				c0.147-2.675,1.516-4.775,3.056-4.69C356.154,231.295,357.283,233.533,357.137,236.208z"/>
		</g>
		<g>
			<path style="fill:#C5EFDD;" d="M356.253,250.222c-0.148,2.675-1.516,4.774-3.056,4.69c-1.54-0.085-2.669-2.322-2.523-4.998
				c0.148-2.675,1.517-4.775,3.057-4.69C355.271,245.309,356.4,247.546,356.253,250.222z"/>
			<path style="fill:#FFFFFF;" d="M355.372,250.173c-0.148,2.676-1.516,4.775-3.056,4.69c-1.54-0.085-2.669-2.322-2.522-4.998
				c0.148-2.675,1.517-4.775,3.057-4.69C354.391,245.26,355.52,247.498,355.372,250.173z"/>
		</g>
		<g>
			<g>
				<path style="fill:#FFFFFF;" d="M340.779,91.858c-11.48-6.55,5.639-20.378,10.247-8.153c2.428,6.439-3.361,14.497-6.092,20.194
					c-0.733,1.528,1.549,2.872,2.284,1.336c2.709-5.651,7.806-12.918,7.12-19.541c-0.498-4.809-4.404-9.019-9.277-9.485
					c-10.54-1.011-14.643,12.785-5.617,17.935C340.926,94.988,342.26,92.702,340.779,91.858L340.779,91.858z"/>
			</g>
			<g>
				<path style="fill:#FFFFFF;" d="M346.455,114.817c0.096,1.27,0.191,2.539,0.286,3.81c0.866-0.117,1.733-0.234,2.6-0.352
					c-0.13-0.873-0.26-1.746-0.39-2.619c-0.106-0.708-0.999-1.097-1.628-0.924c-0.758,0.208-1.029,0.918-0.924,1.628
					c0.13,0.872,0.26,1.746,0.389,2.618c0.219,1.466,2.711,1.132,2.6-0.351c-0.096-1.271-0.19-2.54-0.286-3.81
					C348.974,113.13,346.327,113.116,346.455,114.817L346.455,114.817z"/>
			</g>
			<g>
				<path style="fill:#FFFFFF;" d="M377.852,86.702c-3.501,7.321-7.002,14.642-10.502,21.963c-0.731,1.528,1.549,2.872,2.284,1.335
					c3.501-7.321,7.001-14.641,10.502-21.962C380.867,86.509,378.586,85.165,377.852,86.702L377.852,86.702z"/>
			</g>
			<g>
				<path style="fill:#FFFFFF;" d="M361.674,117.587c-1.059,1.121-0.244,3.129,1.379,2.932c0.693-0.084,1.224-0.612,1.399-1.276
					c0.205-0.776-0.157-1.461-0.782-1.903c-0.584-0.413-1.471-0.104-1.81,0.475c-0.388,0.662-0.11,1.396,0.474,1.81
					c0.029,0.021,0.059,0.04,0.088,0.062c-0.159-0.158-0.317-0.316-0.475-0.475c-0.085-0.255-0.095-0.505-0.026-0.751
					c0.158-0.158,0.315-0.316,0.475-0.474c0.125-0.034,0.25-0.066,0.375-0.1c0.223,0.061,0.445,0.121,0.669,0.181
					c0.193,0.176,0.32,0.384,0.379,0.626c-0.061,0.222-0.121,0.445-0.181,0.667c-0.031,0.032-0.062,0.064-0.093,0.096
					C364.714,118.221,362.847,116.346,361.674,117.587L361.674,117.587z"/>
			</g>
			<g>
				<path style="fill:#FFFFFF;" d="M391.185,127.662c6.732-5.073,0.023-15.554-6.963-10.387c-2.238,1.655-2.885,5.013-1.199,7.303
					c2.855,3.878,6.264-0.117,9.034-1.628c1.283-0.7,0.394-2.993-1.02-2.418c-6.585,2.677,0.197,11.9,5.903,6.293
					c4.857-4.771,4.254-18.88-3.794-20.113c-9.351-1.434-18.242,10.7-16.934,19.197c1.239,8.045,10.909,13.088,17.051,6.473
					c1.158-1.247-0.708-3.122-1.871-1.871c-4.178,4.5-10.767,1.738-12.309-3.725c-1.328-4.702,0.854-9.324,4.061-12.692
					c3.229-3.388,11.085-8.275,13.434-1.095c0.57,1.741,0.513,3.765,0.406,5.572c-0.041,1.236-0.199,2.459-0.474,3.669
					c-0.665,3.436-2.256,3.718-4.771,0.844c-0.34-0.806-0.68-1.612-1.021-2.418c-0.916,0.5-1.794,1.532-2.732,1.928
					c-1.67,1.618-1.696,0.318-0.078-3.9c4.15,1.552,4.797,3.78,1.939,6.685C388.508,126.389,389.825,128.688,391.185,127.662
					L391.185,127.662z"/>
			</g>
			<g>
				<path style="fill:#FFFFFF;" d="M310.867,105.619c3.658,4.799,6.948,9.87,10.605,14.669c1.018,1.336,3.318,0.02,2.285-1.336
					c-3.658-4.799-6.948-9.87-10.605-14.668C312.134,102.947,309.834,104.264,310.867,105.619L310.867,105.619z"/>
			</g>
			<g>
				<path style="fill:#FFFFFF;" d="M320.346,103.021c3.186,4.666,6.888,8.956,10.072,13.623c0.955,1.398,3.249,0.076,2.286-1.336
					c-3.186-4.666-6.888-8.956-10.072-13.623C321.678,100.288,319.383,101.609,320.346,103.021L320.346,103.021z"/>
			</g>
			<g>
				<path style="fill:#FFFFFF;" d="M310.989,115.1c4.397-5.297,10.274-8.614,17.074-9.66c1.679-0.258,0.965-2.808-0.703-2.551
					c-7.206,1.108-13.586,4.732-18.241,10.34C308.039,114.53,309.9,116.412,310.989,115.1L310.989,115.1z"/>
			</g>
			<g>
				<path style="fill:#FFFFFF;" d="M313.855,118.599c5.893-2.316,11.787-4.632,17.683-6.948c1.566-0.616,0.884-3.176-0.704-2.552
					c-5.894,2.316-11.789,4.632-17.683,6.948C311.585,116.663,312.267,119.223,313.855,118.599L313.855,118.599z"/>
			</g>
		</g>
		<path style="fill:#FFFFFF;" d="M341.895,203.874c0,1.116-1.296,2.02-2.897,2.02c-1.601,0-2.898-0.904-2.898-2.02
			c0-1.116,1.297-2.02,2.898-2.02C340.599,201.854,341.895,202.758,341.895,203.874z"/>
		<path style="fill:#FFFFFF;" d="M313.295,206.212c0.196,0.731-0.747,1.621-2.105,1.986c-1.358,0.365-2.62,0.068-2.817-0.663
			c-0.196-0.732,0.747-1.621,2.105-1.986C311.836,205.184,313.097,205.481,313.295,206.212z"/>
	</g>
</g>
</svg>
